<svg xmlns="http://www.w3.org/2000/svg" xmlns:xlink="http://www.w3.org/1999/xlink" width="375" viewBox="0 0 375 375" height="375" version="1.0"><defs><g id="b"><path d="M 9.328125 -39.828125 C 14.054688 -44.304688 19.882812 -46.546875 26.8125 -46.546875 C 33.75 -46.546875 39.578125 -44.304688 44.296875 -39.828125 C 49.023438 -35.347656 51.390625 -29.796875 51.390625 -23.171875 C 51.390625 -16.554688 49.023438 -10.984375 44.296875 -6.453125 C 39.578125 -1.929688 33.75 0.328125 26.8125 0.328125 C 19.882812 0.328125 14.054688 -1.929688 9.328125 -6.453125 C 4.609375 -10.984375 2.25 -16.554688 2.25 -23.171875 C 2.25 -29.796875 4.609375 -35.347656 9.328125 -39.828125 Z M 26.890625 -39.53125 C 22.296875 -39.53125 18.363281 -37.953125 15.09375 -34.796875 C 11.832031 -31.640625 10.203125 -27.765625 10.203125 -23.171875 C 10.203125 -18.585938 11.84375 -14.691406 15.125 -11.484375 C 18.414062 -8.285156 22.332031 -6.6875 26.875 -6.6875 C 31.425781 -6.6875 35.3125 -8.285156 38.53125 -11.484375 C 41.757812 -14.691406 43.375 -18.585938 43.375 -23.171875 C 43.375 -27.765625 41.757812 -31.640625 38.53125 -34.796875 C 35.3125 -37.953125 31.429688 -39.53125 26.890625 -39.53125 Z M 26.890625 -39.53125"/></g><g id="c"><path d="M 53.765625 0 L 45.75 0 L 34.765625 -36.15625 L 23.640625 0 L 15.5625 0 L 0.203125 -46.359375 L 8.609375 -46.359375 L 19.859375 -8.671875 L 31.0625 -46.28125 L 38.734375 -46.359375 L 50 -8.671875 L 61.1875 -46.359375 L 69.265625 -46.359375 Z M 53.765625 0"/></g><g id="d"><path d="M 13.90625 -7.078125 L 33.96875 -7.078125 L 33.96875 0 L 6.09375 0 L 6.09375 -46.359375 L 13.90625 -46.359375 Z M 13.90625 -7.078125"/></g><g id="e"><path d="M 46.28125 0 L 38.609375 0 L 13.90625 -33.234375 L 13.90625 0 L 6.09375 0 L 6.09375 -46.359375 L 13.78125 -46.359375 L 38.609375 -13.046875 L 38.609375 -46.359375 L 46.28125 -46.359375 Z M 46.28125 0"/></g><g id="f"><path d="M 37.015625 0 L 21.78125 -20.46875 L 13.90625 -11.78125 L 13.90625 0 L 6.09375 0 L 6.09375 -46.359375 L 13.90625 -46.359375 L 13.90625 -22.375 L 36.015625 -46.359375 L 45.234375 -46.359375 L 27.28125 -26.546875 L 46.421875 0 Z M 37.015625 0"/></g><clipPath id="a"><path d="M 2 86.109375 L 137.722656 86.109375 L 137.722656 251.109375 L 2 251.109375 Z M 2 86.109375"/></clipPath></defs><g clip-path="url(#a)"><path fill="#F87575" d="M 2.273438 147.890625 L 2.273438 184.375 C 2.273438 221.042969 32.164062 251.109375 69.023438 251.109375 L 133.207031 251.109375 C 135.589844 251.109375 137.425781 249.273438 137.425781 246.890625 L 137.425781 147.890625 C 137.425781 146.058594 137.242188 144.410156 137.242188 142.574219 C 137.242188 142.574219 137.242188 142.574219 137.242188 142.390625 C 137.242188 142.023438 137.242188 141.839844 137.058594 141.476562 C 133.757812 110.492188 107.535156 86.109375 75.625 86.109375 L 64.070312 86.109375 C 29.964844 86.109375 2.273438 113.792969 2.273438 147.890625 Z M 68.839844 242.675781 C 36.75 242.675781 10.523438 216.457031 10.523438 184.375 L 10.523438 147.890625 C 10.523438 143.125 11.257812 138.359375 12.359375 133.957031 C 11.992188 135.792969 11.808594 137.808594 11.808594 139.824219 C 11.808594 157.058594 25.011719 171.175781 41.882812 172.824219 C 42.433594 173.007812 42.984375 173.007812 43.535156 173.007812 L 80.761719 173.007812 C 77.824219 179.792969 76.359375 187.308594 76.359375 194.824219 C 76.359375 215.175781 87.179688 232.773438 103.316406 242.859375 L 68.839844 242.859375 Z M 20.425781 138.359375 C 21.160156 126.074219 31.0625 115.808594 43.351562 115.074219 C 54.535156 114.339844 64.4375 121.125 68.289062 130.839844 C 68.839844 132.308594 70.855469 132.308594 71.40625 130.839844 C 75.257812 121.125 84.792969 114.523438 95.980469 115.074219 C 108.082031 115.808594 118.167969 125.523438 119.085938 137.625 C 120.371094 151.191406 110.652344 162.925781 97.8125 164.757812 L 43.714844 164.757812 C 30.148438 163.660156 19.695312 152.292969 20.425781 138.359375 Z M 128.804688 146.976562 C 128.804688 147.339844 128.804688 147.523438 128.804688 147.890625 L 128.804688 242.492188 C 104.234375 240.476562 84.792969 219.757812 84.792969 194.640625 C 84.792969 186.941406 86.628906 179.609375 90.113281 172.824219 C 98.914062 172.824219 106.617188 171.726562 113.953125 166.410156 C 120.371094 161.640625 124.953125 154.859375 126.789062 147.160156 C 127.339844 147.160156 126.605469 147.160156 128.804688 146.976562 Z M 63.890625 94.542969 L 75.441406 94.542969 C 94.695312 94.542969 111.566406 104.808594 120.921875 120.207031 C 114.867188 111.957031 105.148438 106.640625 94.328125 106.640625 C 84.609375 106.640625 75.808594 110.859375 69.757812 117.640625 C 63.707031 110.859375 54.902344 106.640625 45.183594 106.640625 C 34.179688 106.640625 24.644531 111.957031 18.59375 120.207031 C 27.761719 104.808594 44.632812 94.542969 63.890625 94.542969 Z M 63.890625 94.542969"/></g><path fill="#F87575" d="M 103.867188 143.492188 L 103.867188 134.875 L 95.246094 134.875 C 91.394531 134.875 88.09375 137.992188 88.09375 142.023438 L 88.09375 150.640625 L 96.714844 150.640625 C 100.566406 150.640625 103.867188 147.523438 103.867188 143.492188 Z M 103.867188 143.492188"/><path fill="#F87575" d="M 51.601562 142.023438 C 51.601562 138.175781 48.484375 134.875 44.449219 134.875 L 35.832031 134.875 L 35.832031 143.492188 C 35.832031 147.339844 38.949219 150.640625 42.984375 150.640625 L 51.601562 150.640625 Z M 51.601562 142.023438"/><path fill="#F87575" d="M 75.992188 152.476562 L 69.757812 146.609375 L 63.523438 152.476562 L 69.757812 163.109375 Z M 75.992188 152.476562"/><g fill="#F87575"><use x="137.962" y="159.433" xmlns:xlink="http://www.w3.org/1999/xlink" xlink:href="#b" xlink:type="simple" xlink:actuate="onLoad" xlink:show="embed"/></g><g fill="#F87575"><use x="199.542" y="159.433" xmlns:xlink="http://www.w3.org/1999/xlink" xlink:href="#c" xlink:type="simple" xlink:actuate="onLoad" xlink:show="embed"/></g><g fill="#F87575"><use x="276.085" y="159.433" xmlns:xlink="http://www.w3.org/1999/xlink" xlink:href="#d" xlink:type="simple" xlink:actuate="onLoad" xlink:show="embed"/></g><g fill="#F87575"><use x="137.962" y="236.86" xmlns:xlink="http://www.w3.org/1999/xlink" xlink:href="#e" xlink:type="simple" xlink:actuate="onLoad" xlink:show="embed"/></g><g fill="#F87575"><use x="198.35" y="236.86" xmlns:xlink="http://www.w3.org/1999/xlink" xlink:href="#b" xlink:type="simple" xlink:actuate="onLoad" xlink:show="embed"/></g><g fill="#F87575"><use x="259.929" y="236.86" xmlns:xlink="http://www.w3.org/1999/xlink" xlink:href="#b" xlink:type="simple" xlink:actuate="onLoad" xlink:show="embed"/></g><g fill="#F87575"><use x="321.509" y="236.86" xmlns:xlink="http://www.w3.org/1999/xlink" xlink:href="#f" xlink:type="simple" xlink:actuate="onLoad" xlink:show="embed"/></g></svg>