<svg xmlns="http://www.w3.org/2000/svg" xmlns:xlink="http://www.w3.org/1999/xlink" width="375" viewBox="0 0 375 375" height="375" version="1.0"><defs><g id="b"><path d="M 9.046875 -38.578125 C 13.617188 -42.921875 19.257812 -45.09375 25.96875 -45.09375 C 32.6875 -45.09375 38.332031 -42.921875 42.90625 -38.578125 C 47.476562 -34.234375 49.765625 -28.851562 49.765625 -22.4375 C 49.765625 -16.03125 47.476562 -10.632812 42.90625 -6.25 C 38.332031 -1.863281 32.6875 0.328125 25.96875 0.328125 C 19.257812 0.328125 13.617188 -1.863281 9.046875 -6.25 C 4.472656 -10.632812 2.1875 -16.03125 2.1875 -22.4375 C 2.1875 -28.851562 4.472656 -34.234375 9.046875 -38.578125 Z M 26.046875 -38.296875 C 21.597656 -38.296875 17.789062 -36.765625 14.625 -33.703125 C 11.457031 -30.648438 9.875 -26.898438 9.875 -22.453125 C 9.875 -18.003906 11.46875 -14.226562 14.65625 -11.125 C 17.84375 -8.03125 21.632812 -6.484375 26.03125 -6.484375 C 30.4375 -6.484375 34.203125 -8.03125 37.328125 -11.125 C 40.453125 -14.226562 42.015625 -18.003906 42.015625 -22.453125 C 42.015625 -26.898438 40.453125 -30.648438 37.328125 -33.703125 C 34.203125 -36.765625 30.441406 -38.296875 26.046875 -38.296875 Z M 26.046875 -38.296875"/></g><g id="c"><path d="M 52.078125 0 L 44.328125 0 L 33.671875 -35.015625 L 22.890625 0 L 15.078125 0 L 0.1875 -44.890625 L 8.34375 -44.890625 L 19.234375 -8.40625 L 30.078125 -44.828125 L 37.515625 -44.890625 L 48.421875 -8.40625 L 59.265625 -44.890625 L 67.09375 -44.890625 Z M 52.078125 0"/></g><g id="d"><path d="M 13.46875 -6.859375 L 32.90625 -6.859375 L 32.90625 0 L 5.90625 0 L 5.90625 -44.890625 L 13.46875 -44.890625 Z M 13.46875 -6.859375"/></g><g id="e"><path d="M 44.828125 0 L 37.390625 0 L 13.46875 -32.203125 L 13.46875 0 L 5.90625 0 L 5.90625 -44.890625 L 13.34375 -44.890625 L 37.390625 -12.640625 L 37.390625 -44.890625 L 44.828125 -44.890625 Z M 44.828125 0"/></g><g id="f"><path d="M 35.859375 0 L 21.109375 -19.8125 L 13.46875 -11.421875 L 13.46875 0 L 5.90625 0 L 5.90625 -44.890625 L 13.46875 -44.890625 L 13.46875 -21.671875 L 34.890625 -44.890625 L 43.8125 -44.890625 L 26.421875 -25.71875 L 44.96875 0 Z M 35.859375 0"/></g><clipPath id="a"><path d="M 2 86.109375 L 137.667969 86.109375 L 137.667969 251.367188 L 2 251.367188 Z M 2 86.109375"/></clipPath></defs><g clip-path="url(#a)"><path fill="#A2ABB5" d="M 2.269531 147.988281 L 2.269531 184.527344 C 2.269531 221.253906 32.148438 251.367188 68.996094 251.367188 L 133.15625 251.367188 C 135.539062 251.367188 137.371094 249.53125 137.371094 247.144531 L 137.371094 147.988281 C 137.371094 146.152344 137.1875 144.5 137.1875 142.664062 C 137.1875 142.664062 137.1875 142.664062 137.1875 142.480469 C 137.1875 142.113281 137.1875 141.929688 137.003906 141.5625 C 133.707031 110.53125 107.492188 86.109375 75.59375 86.109375 L 64.046875 86.109375 C 29.949219 86.109375 2.269531 113.835938 2.269531 147.988281 Z M 68.8125 242.917969 C 36.730469 242.917969 10.519531 216.664062 10.519531 184.527344 L 10.519531 147.988281 C 10.519531 143.214844 11.25 138.441406 12.351562 134.035156 C 11.984375 135.871094 11.800781 137.890625 11.800781 139.910156 C 11.800781 157.167969 25 171.308594 41.863281 172.960938 C 42.414062 173.144531 42.964844 173.144531 43.515625 173.144531 L 80.726562 173.144531 C 77.792969 179.9375 76.328125 187.464844 76.328125 194.996094 C 76.328125 215.375 87.144531 233.003906 103.273438 243.105469 L 68.8125 243.105469 Z M 20.417969 138.441406 C 21.148438 126.136719 31.050781 115.855469 43.332031 115.121094 C 54.511719 114.386719 64.414062 121.179688 68.261719 130.910156 C 68.8125 132.378906 70.828125 132.378906 71.378906 130.910156 C 75.226562 121.179688 84.761719 114.570312 95.941406 115.121094 C 108.042969 115.855469 118.125 125.585938 119.039062 137.707031 C 120.324219 151.292969 110.609375 163.046875 97.777344 164.882812 L 43.699219 164.882812 C 30.132812 163.78125 19.683594 152.394531 20.417969 138.441406 Z M 128.757812 147.070312 C 128.757812 147.4375 128.757812 147.621094 128.757812 147.988281 L 128.757812 242.734375 C 104.191406 240.714844 84.761719 219.96875 84.761719 194.8125 C 84.761719 187.097656 86.59375 179.753906 90.078125 172.960938 C 98.875 172.960938 106.574219 171.859375 113.90625 166.535156 C 120.324219 161.761719 124.90625 154.964844 126.738281 147.253906 C 127.289062 147.253906 126.554688 147.253906 128.757812 147.070312 Z M 63.863281 94.554688 L 75.410156 94.554688 C 94.660156 94.554688 111.523438 104.835938 120.875 120.261719 C 114.824219 112 105.109375 106.675781 94.292969 106.675781 C 84.578125 106.675781 75.777344 110.898438 69.730469 117.691406 C 63.679688 110.898438 54.878906 106.675781 45.164062 106.675781 C 34.164062 106.675781 24.632812 112 18.582031 120.261719 C 27.75 104.835938 44.613281 94.554688 63.863281 94.554688 Z M 63.863281 94.554688"/></g><path fill="#A2ABB5" d="M 103.824219 143.582031 L 103.824219 134.953125 L 95.210938 134.953125 C 91.359375 134.953125 88.058594 138.074219 88.058594 142.113281 L 88.058594 150.742188 L 96.675781 150.742188 C 100.527344 150.742188 103.824219 147.621094 103.824219 143.582031 Z M 103.824219 143.582031"/><path fill="#A2ABB5" d="M 51.582031 142.113281 C 51.582031 138.257812 48.464844 134.953125 44.429688 134.953125 L 35.816406 134.953125 L 35.816406 143.582031 C 35.816406 147.4375 38.933594 150.742188 42.964844 150.742188 L 51.582031 150.742188 Z M 51.582031 142.113281"/><path fill="#A2ABB5" d="M 75.960938 152.578125 L 69.730469 146.703125 L 63.496094 152.578125 L 69.730469 163.230469 Z M 75.960938 152.578125"/><g fill="#A2ABB5"><use x="137.962" y="163.805" xmlns:xlink="http://www.w3.org/1999/xlink" xlink:href="#b" xlink:type="simple" xlink:actuate="onLoad" xlink:show="embed"/></g><g fill="#A2ABB5"><use x="197.612" y="163.805" xmlns:xlink="http://www.w3.org/1999/xlink" xlink:href="#c" xlink:type="simple" xlink:actuate="onLoad" xlink:show="embed"/></g><g fill="#A2ABB5"><use x="271.756" y="163.805" xmlns:xlink="http://www.w3.org/1999/xlink" xlink:href="#d" xlink:type="simple" xlink:actuate="onLoad" xlink:show="embed"/></g><g fill="#A2ABB5"><use x="137.962" y="238.805" xmlns:xlink="http://www.w3.org/1999/xlink" xlink:href="#e" xlink:type="simple" xlink:actuate="onLoad" xlink:show="embed"/></g><g fill="#A2ABB5"><use x="196.457" y="238.805" xmlns:xlink="http://www.w3.org/1999/xlink" xlink:href="#b" xlink:type="simple" xlink:actuate="onLoad" xlink:show="embed"/></g><g fill="#A2ABB5"><use x="256.107" y="238.805" xmlns:xlink="http://www.w3.org/1999/xlink" xlink:href="#b" xlink:type="simple" xlink:actuate="onLoad" xlink:show="embed"/></g><g fill="#A2ABB5"><use x="315.756" y="238.805" xmlns:xlink="http://www.w3.org/1999/xlink" xlink:href="#f" xlink:type="simple" xlink:actuate="onLoad" xlink:show="embed"/></g></svg>