<svg xmlns="http://www.w3.org/2000/svg" xmlns:xlink="http://www.w3.org/1999/xlink" width="375" viewBox="0 0 375 375" height="375" version="1.0"><defs><g id="b"><path d="M 9.046875 -38.578125 C 13.617188 -42.921875 19.257812 -45.09375 25.96875 -45.09375 C 32.6875 -45.09375 38.332031 -42.921875 42.90625 -38.578125 C 47.476562 -34.234375 49.765625 -28.851562 49.765625 -22.4375 C 49.765625 -16.03125 47.476562 -10.632812 42.90625 -6.25 C 38.332031 -1.863281 32.6875 0.328125 25.96875 0.328125 C 19.257812 0.328125 13.617188 -1.863281 9.046875 -6.25 C 4.472656 -10.632812 2.1875 -16.03125 2.1875 -22.4375 C 2.1875 -28.851562 4.472656 -34.234375 9.046875 -38.578125 Z M 26.046875 -38.296875 C 21.597656 -38.296875 17.789062 -36.765625 14.625 -33.703125 C 11.457031 -30.648438 9.875 -26.898438 9.875 -22.453125 C 9.875 -18.003906 11.46875 -14.226562 14.65625 -11.125 C 17.84375 -8.03125 21.632812 -6.484375 26.03125 -6.484375 C 30.4375 -6.484375 34.203125 -8.03125 37.328125 -11.125 C 40.453125 -14.226562 42.015625 -18.003906 42.015625 -22.453125 C 42.015625 -26.898438 40.453125 -30.648438 37.328125 -33.703125 C 34.203125 -36.765625 30.441406 -38.296875 26.046875 -38.296875 Z M 26.046875 -38.296875"/></g><g id="c"><path d="M 52.078125 0 L 44.328125 0 L 33.671875 -35.015625 L 22.890625 0 L 15.078125 0 L 0.1875 -44.890625 L 8.34375 -44.890625 L 19.234375 -8.40625 L 30.078125 -44.828125 L 37.515625 -44.890625 L 48.421875 -8.40625 L 59.265625 -44.890625 L 67.09375 -44.890625 Z M 52.078125 0"/></g><g id="d"><path d="M 13.46875 -6.859375 L 32.90625 -6.859375 L 32.90625 0 L 5.90625 0 L 5.90625 -44.890625 L 13.46875 -44.890625 Z M 13.46875 -6.859375"/></g><g id="e"><path d="M 44.828125 0 L 37.390625 0 L 13.46875 -32.203125 L 13.46875 0 L 5.90625 0 L 5.90625 -44.890625 L 13.34375 -44.890625 L 37.390625 -12.640625 L 37.390625 -44.890625 L 44.828125 -44.890625 Z M 44.828125 0"/></g><g id="f"><path d="M 35.859375 0 L 21.109375 -19.8125 L 13.46875 -11.421875 L 13.46875 0 L 5.90625 0 L 5.90625 -44.890625 L 13.46875 -44.890625 L 13.46875 -21.671875 L 34.890625 -44.890625 L 43.8125 -44.890625 L 26.421875 -25.71875 L 44.96875 0 Z M 35.859375 0"/></g><clipPath id="a"><path d="M 4 93.964844 L 139.640625 93.964844 L 139.640625 259.222656 L 4 259.222656 Z M 4 93.964844"/></clipPath></defs><g clip-path="url(#a)"><path fill="#FFF" d="M 4.242188 155.84375 L 4.242188 192.386719 C 4.242188 229.109375 34.121094 259.222656 70.96875 259.222656 L 135.128906 259.222656 C 137.511719 259.222656 139.34375 257.386719 139.34375 255 L 139.34375 155.84375 C 139.34375 154.007812 139.164062 152.355469 139.164062 150.519531 C 139.164062 150.519531 139.164062 150.519531 139.164062 150.335938 C 139.164062 149.96875 139.164062 149.785156 138.980469 149.417969 C 135.679688 118.386719 109.464844 93.964844 77.566406 93.964844 L 66.019531 93.964844 C 31.921875 93.964844 4.242188 121.691406 4.242188 155.84375 Z M 70.785156 250.777344 C 38.707031 250.777344 12.492188 224.519531 12.492188 192.386719 L 12.492188 155.84375 C 12.492188 151.070312 13.226562 146.296875 14.324219 141.890625 C 13.957031 143.726562 13.773438 145.746094 13.773438 147.765625 C 13.773438 165.027344 26.972656 179.164062 43.839844 180.816406 C 44.386719 181 44.9375 181 45.488281 181 L 82.699219 181 C 79.769531 187.796875 78.300781 195.324219 78.300781 202.851562 C 78.300781 223.234375 89.117188 240.863281 105.25 250.960938 L 70.785156 250.960938 Z M 22.390625 146.296875 C 23.125 133.996094 33.023438 123.710938 45.304688 122.976562 C 56.488281 122.242188 66.386719 129.035156 70.234375 138.769531 C 70.785156 140.238281 72.800781 140.238281 73.351562 138.769531 C 77.203125 129.035156 86.734375 122.425781 97.917969 122.976562 C 110.015625 123.710938 120.097656 133.445312 121.015625 145.5625 C 122.296875 159.152344 112.582031 170.902344 99.75 172.738281 L 45.671875 172.738281 C 32.105469 171.636719 21.65625 160.253906 22.390625 146.296875 Z M 130.730469 154.925781 C 130.730469 155.292969 130.730469 155.476562 130.730469 155.84375 L 130.730469 250.59375 C 106.164062 248.574219 86.734375 227.824219 86.734375 202.667969 C 86.734375 194.957031 88.566406 187.613281 92.050781 180.816406 C 100.847656 180.816406 108.546875 179.714844 115.882812 174.390625 C 122.296875 169.617188 126.878906 162.824219 128.714844 155.109375 C 129.261719 155.109375 128.53125 155.109375 130.730469 154.925781 Z M 65.835938 102.414062 L 77.386719 102.414062 C 96.632812 102.414062 113.496094 112.695312 122.847656 128.117188 C 116.796875 119.855469 107.082031 114.53125 96.265625 114.53125 C 86.550781 114.53125 77.75 118.753906 71.703125 125.546875 C 65.652344 118.753906 56.855469 114.53125 47.136719 114.53125 C 36.140625 114.53125 26.605469 119.855469 20.558594 128.117188 C 29.722656 112.695312 46.589844 102.414062 65.835938 102.414062 Z M 65.835938 102.414062"/></g><path fill="#FFF" d="M 105.796875 151.4375 L 105.796875 142.808594 L 97.183594 142.808594 C 93.332031 142.808594 90.035156 145.929688 90.035156 149.96875 L 90.035156 158.601562 L 98.648438 158.601562 C 102.5 158.601562 105.796875 155.476562 105.796875 151.4375 Z M 105.796875 151.4375"/><path fill="#FFF" d="M 53.554688 149.96875 C 53.554688 146.113281 50.4375 142.808594 46.40625 142.808594 L 37.789062 142.808594 L 37.789062 151.4375 C 37.789062 155.292969 40.90625 158.601562 44.9375 158.601562 L 53.554688 158.601562 Z M 53.554688 149.96875"/><path fill="#FFF" d="M 77.933594 160.4375 L 71.703125 154.558594 L 65.46875 160.4375 L 71.703125 171.085938 Z M 77.933594 160.4375"/><g fill="#FFF"><use x="139.936" y="171.662" xmlns:xlink="http://www.w3.org/1999/xlink" xlink:href="#b" xlink:type="simple" xlink:actuate="onLoad" xlink:show="embed"/></g><g fill="#FFF"><use x="199.585" y="171.662" xmlns:xlink="http://www.w3.org/1999/xlink" xlink:href="#c" xlink:type="simple" xlink:actuate="onLoad" xlink:show="embed"/></g><g fill="#FFF"><use x="273.729" y="171.662" xmlns:xlink="http://www.w3.org/1999/xlink" xlink:href="#d" xlink:type="simple" xlink:actuate="onLoad" xlink:show="embed"/></g><g fill="#FFF"><use x="139.936" y="246.662" xmlns:xlink="http://www.w3.org/1999/xlink" xlink:href="#e" xlink:type="simple" xlink:actuate="onLoad" xlink:show="embed"/></g><g fill="#FFF"><use x="198.431" y="246.662" xmlns:xlink="http://www.w3.org/1999/xlink" xlink:href="#b" xlink:type="simple" xlink:actuate="onLoad" xlink:show="embed"/></g><g fill="#FFF"><use x="258.08" y="246.662" xmlns:xlink="http://www.w3.org/1999/xlink" xlink:href="#b" xlink:type="simple" xlink:actuate="onLoad" xlink:show="embed"/></g><g fill="#FFF"><use x="317.729" y="246.662" xmlns:xlink="http://www.w3.org/1999/xlink" xlink:href="#f" xlink:type="simple" xlink:actuate="onLoad" xlink:show="embed"/></g></svg>